<svg xmlns="http://www.w3.org/2000/svg" xmlns:xlink="http://www.w3.org/1999/xlink" viewBox="0 0 80.46 43.31"><defs><style>.cls-1{isolation:isolate;}.cls-2{fill:#404040;}.cls-3{fill:#262529;}.cls-4{fill:#3d3d3d;}.cls-5{fill:#4274c6;}.cls-6{fill:#bdbdbd;mix-blend-mode:screen;}.cls-7{fill:#4a484b;}.cls-8{fill:#212121;}.cls-9{fill:#5e7d28;}.cls-10{fill:#db2a24;}.cls-11{fill:#ff6963;}.cls-12{fill:#3b4db2;}.cls-13{fill:url(#linear-gradient);}.cls-14{fill:#504e51;}.cls-15{fill:#e3e3e3;}.cls-16{fill:#1c2426;}.cls-17{fill:url(#linear-gradient-2);}.cls-18{fill:#a6a6a6;}</style><linearGradient id="linear-gradient" x1="37.51" y1="35.85" x2="37.51" y2="35.15" gradientUnits="userSpaceOnUse"><stop offset="0" stop-color="#5f5a5e"/><stop offset="0.28" stop-color="#262529"/><stop offset="0.48" stop-color="#29282c"/><stop offset="0.63" stop-color="#333135"/><stop offset="0.76" stop-color="#434144"/><stop offset="0.81" stop-color="#4a484b"/></linearGradient><linearGradient id="linear-gradient-2" x1="23.79" y1="20.06" x2="23.79" y2="21.52" gradientUnits="userSpaceOnUse"><stop offset="0" stop-color="#5f5a5e"/><stop offset="0.28"/><stop offset="0.75"/><stop offset="0.81"/></linearGradient></defs><g class="cls-1"><g id="Слой_2" data-name="Слой 2"><g id="Layer_1" data-name="Layer 1"><polygon class="cls-2" points="63.34 13.02 46.93 24.71 45.25 22.08 62.77 12.14 63.34 13.02"/><path class="cls-2" d="M68.06,1l-.23.31L51.13,23.11c-.05.07-.1.14-.14.21a3.58,3.58,0,0,0,1,5,3.07,3.07,0,0,0,.82.39L70.93.19A2.42,2.42,0,0,0,68.06,1Z"/><path class="cls-3" d="M78.92,17.25,72.25,1.48a2.52,2.52,0,0,0-.77-1,2.46,2.46,0,0,0-.55-.3L52.83,28.67A3.58,3.58,0,0,0,57,27.26L70.09,7.36,77.78,17.9a.66.66,0,0,0,1.14-.65Z"/><path class="cls-4" d="M78.3,26.31a2,2,0,0,1-1.49-.52,2.46,2.46,0,0,1-.56-1.87,1.9,1.9,0,0,1,.59-1.42A2,2,0,0,1,78,22V20.87a.38.38,0,0,1,.37-.37.37.37,0,0,1,.36.37v1.85l-.38,0a1.5,1.5,0,0,0-1,.34,1.2,1.2,0,0,0-.35.9,1.81,1.81,0,0,0,.35,1.34,1.29,1.29,0,0,0,1,.3c.79,0,1.27-.22,1.4-.63a.37.37,0,0,1,.47-.23.37.37,0,0,1,.23.46c-.17.51-.67,1.11-2.09,1.13Z"/><path class="cls-5" d="M72.31,22.86H47.53V10.45c-.43,0-7.91-.09-8.37-.09-6.87,0-18.48,9.86-18.48,9.86S20,21,8,21.65c-11.7.66-7.18,14.2-7.18,14.2H71.69s1.71-6.33,1.54-10.27A5.81,5.81,0,0,0,72.31,22.86Z"/><path class="cls-6" d="M.17,28.21c1.39,0,4.64,0,5-.35,2.17-2.35.7-3,.7-3H1.42A8.44,8.44,0,0,0,.17,28.21Z"/><path class="cls-7" d="M23,21.29c.55-2.77,8.94-7.7,15.28-8.47,6.55-.42,7.23-.16,7.23-.16l-.19,8.59Z"/><path class="cls-8" d="M23,21.67a.37.37,0,0,1-.29-.14.39.39,0,0,1-.08-.31c.62-3.09,9.37-8,15.61-8.77,2.52-.16,5.4-.24,7.62-.24,1,0,0,.62,0,.82l-.19,8.23a.36.36,0,0,1-.37.36ZM45.36,13c-2.2,0-4.58.08-7.07.24-6,.73-13.54,5.09-14.79,7.74L45,20.88,45.13,13C44.63,13,46.79,13,45.36,13Z"/><path class="cls-9" d="M43.64,22.59c-.85,0-1.57.37-1.57.82s.72.82,1.57.82,1.58-.38,1.58-.82S44.5,22.59,43.64,22.59Z"/><path class="cls-10" d="M72.72,23.48c.26.73.51,1.46.75,2.2-.21,2.14-.51,4.27-.9,6.37-.31-.25-.62-.48-.93-.72a70.55,70.55,0,0,0-.4-7.83q.56-.32,1.11-.66Z"/><path class="cls-11" d="M72.33,23.94c.18-.07.4.23.52.54s.17.63,0,.73h0c-.18.07-.39-.23-.52-.54s-.17-.63,0-.72Zm.36.6a.86.86,0,0,0-.29-.42.89.89,0,0,0,.09.5.88.88,0,0,0,.28.43A.87.87,0,0,0,72.69,24.54Z"/><path class="cls-11" d="M72.87,25.4c.11,0,.23.14.3.32s.1.39,0,.44h0c-.11,0-.23-.14-.3-.33s-.1-.38,0-.43Zm.21.36a.61.61,0,0,0-.17-.26.52.52,0,0,0,0,.31c.06.17.14.25.16.25A.54.54,0,0,0,73.08,25.76Z"/><path class="cls-12" d="M4.28,32.86s2.89-7.08,13.34-7.08H52.83s-5.37,2.13-5.37,9.37L4.28,34.31Z"/><path class="cls-11" d="M72.74,29.23l-.54.31,0,.1.55-.31Z"/><path class="cls-11" d="M72.73,28.54c-.18.11-.36.22-.55.32l.06.1.54-.32A.31.31,0,0,1,72.73,28.54Z"/><path class="cls-11" d="M72.7,27.86l-.53.33,0,.09.54-.32Z"/><path class="cls-11" d="M72.68,27.18l-.54.33.06.1.53-.33A.31.31,0,0,1,72.68,27.18Z"/><path class="cls-11" d="M72.64,26.51l-.53.33.06.1.53-.33Z"/><path class="cls-3" d="M21.87,19.86c3-3.15,10.7-6.95,11.91-7.41.5-.19.58-.41.51-.59s-.07-.21-.1-.31c-6.38,2.62-13.51,8.67-13.51,8.67h0C21,20.41,21.37,20.46,21.87,19.86Z"/><polygon class="cls-8" points="46.34 21.61 44.1 21.61 44.1 12.26 46.34 12.32 46.34 21.61"/><path d="M.12,32.31a18.89,18.89,0,0,0,.74,3.54H8V34.31H4.28V32.86Z"/><polygon class="cls-13" points="24.75 35.85 50.28 35.85 50.28 35.15 24.93 35.15 24.75 35.85"/><path d="M58.34,27.39a8.59,8.59,0,0,0-7.76,4.94A8.17,8.17,0,0,0,49.77,36H66.91A8.58,8.58,0,0,0,58.34,27.39Z"/><path class="cls-14" d="M65.69,36a7.35,7.35,0,1,1-7.35-7.35A7.35,7.35,0,0,1,65.69,36Z"/><path class="cls-15" d="M58.34,40.25A4.29,4.29,0,1,1,62.63,36,4.3,4.3,0,0,1,58.34,40.25Z"/><path class="cls-16" d="M58.34,37.19A1.23,1.23,0,1,1,59.57,36,1.22,1.22,0,0,1,58.34,37.19Z"/><path d="M16.4,27.39a8.6,8.6,0,0,0-7.77,4.94A8.33,8.33,0,0,0,7.82,36H25A8.58,8.58,0,0,0,16.4,27.39Z"/><path class="cls-14" d="M23.74,36a7.35,7.35,0,1,1-7.34-7.35A7.34,7.34,0,0,1,23.74,36Z"/><path class="cls-15" d="M16.4,40.25A4.29,4.29,0,1,1,20.68,36,4.29,4.29,0,0,1,16.4,40.25Z"/><path class="cls-16" d="M16.4,37.19A1.23,1.23,0,1,1,17.62,36,1.23,1.23,0,0,1,16.4,37.19Z"/><path d="M72.18,33.81l-3.08-.63L67,35.85h4.68S71.91,35,72.18,33.81Z"/><polygon class="cls-17" points="23.78 20.06 22.92 20.99 23.47 21.52 24.65 21.13 23.78 20.06"/><path class="cls-18" d="M27,20.64l-.37-2.74c-.07-.5-.67-.76-1.31-.52-1.37.5-1.9,3.38-1.83,3.51.36.7,1.29.65,2.38.65C26.56,21.54,27.06,21.13,27,20.64Z"/><path class="cls-8" d="M46.09,23.4a.35.35,0,0,1-.35.35l-4.35,0a.35.35,0,0,1-.35-.35h0a.36.36,0,0,1,.35-.36l4.36-.2c.2,0,.52.12.34.54Z"/><path class="cls-3" d="M78.35,21.82a.52.52,0,0,1-.52-.53V17.57a.52.52,0,0,1,.52-.52.52.52,0,0,1,.53.52v3.72A.53.53,0,0,1,78.35,21.82Z"/><path class="cls-14" d="M79.62,17.57a1.27,1.27,0,1,1-1.27-1.27A1.27,1.27,0,0,1,79.62,17.57Z"/><path class="cls-3" d="M79.15,17.57a.8.8,0,0,1-1.6,0,.8.8,0,1,1,1.6,0Z"/></g></g></g></svg>